{"glyphs":{":":{"x_min":0,"x_max":292,"ha":292,"o":"m 107 -8 q 81 -8 63 8 q 44 23 44 53 l 44 63 q 44 98 67 121 q 90 144 125 144 l 128 144 q 158 144 176 128 q 194 112 194 91 l 196 79 l 196 72 q 196 41 175 17 q 154 -6 130 -6 l 118 -8 z m 189 443 l 197 443 q 228 443 245 426 q 263 409 263 380 l 263 373 q 263 341 241 316 q 220 292 188 292 l 172 292 q 167 293 165 293 q 142 293 126 311 q 111 329 111 355 l 111 362 q 111 394 133 419 q 154 443 189 443 z"},"$":{"x_min":0,"x_max":521,"ha":521,"o":"m 343 163 q 343 195 316 222 q 289 249 281 249 l 279 249 q 273 249 269 236 q 228 113 228 52 l 228 50 q 228 47 233 47 l 235 47 l 238 48 l 250 49 q 283 49 312 78 q 342 108 342 139 l 343 144 z m 197 499 l 197 483 q 197 456 222 431 q 247 406 255 406 q 263 406 266 417 q 303 526 303 582 l 303 584 q 303 586 300 586 l 295 586 l 293 585 l 282 584 q 248 584 223 555 q 197 525 197 499 z m 94 455 q 94 521 147 572 q 186 610 252 625 l 267 628 q 292 633 299 637 q 307 641 318 673 q 330 705 345 705 q 360 705 365 697 q 370 688 376 669 q 382 650 399 639 q 463 594 467 587 q 480 567 480 526 q 480 486 453 486 q 439 486 422 523 q 400 571 371 571 q 354 571 343 538 q 313 448 313 407 q 313 382 360 347 q 407 312 429 278 q 451 244 451 182 q 451 120 403 73 q 354 25 290 11 q 226 -4 221 -8 q 216 -13 206 -49 q 196 -84 182 -84 l 172 -84 q 154 -84 154 -41 q 154 -16 139 -2 q 125 11 88 21 q 52 32 37 47 q 22 62 22 102 l 22 114 q 22 147 42 166 q 51 175 61 175 q 74 175 87 139 q 101 103 121 83 q 141 64 162 64 q 178 64 189 99 q 214 176 214 218 q 214 260 203 279 q 200 284 165 315 q 130 347 112 376 q 94 406 94 455 z"},"?":{"x_min":0,"x_max":460,"ha":460,"o":"m 171 137 l 181 137 q 212 137 228 119 q 243 101 243 78 l 243 65 q 243 30 220 10 q 197 -9 167 -9 l 157 -9 q 131 -9 113 6 q 95 22 95 50 l 95 62 q 95 97 118 117 q 142 137 171 137 z m 321 525 q 321 574 279 574 q 253 574 226 544 q 198 515 165 515 q 133 515 133 568 l 133 576 q 133 617 189 648 q 234 672 301 672 q 367 672 416 632 q 465 592 465 531 l 465 514 q 465 428 352 352 q 273 299 262 289 q 250 278 243 239 q 235 200 208 200 l 201 200 q 181 200 172 215 q 164 230 164 265 q 164 300 182 326 q 200 352 242 391 q 284 429 302 459 q 321 489 321 525 z"},"<":{"x_min":0,"x_max":560,"ha":560,"o":"m 72 250 q 72 294 90 306 q 116 321 303 412 q 489 503 493 503 q 514 503 514 460 q 514 436 482 417 q 451 398 322 335 q 193 272 193 270 q 193 256 319 191 q 445 127 469 109 q 492 92 493 67 q 493 25 474 25 q 432 25 104 214 q 72 232 72 250 z"},"'":{"x_min":0,"x_max":259,"ha":259,"o":"m 226 694 l 237 694 q 277 694 277 667 l 276 663 q 276 641 202 433 q 192 405 172 405 l 158 405 q 143 405 143 423 l 143 427 l 145 457 q 145 457 146 476 l 147 491 q 150 515 150 526 l 151 544 q 151 556 151 567 l 152 578 l 152 585 l 153 604 l 154 618 q 154 658 171 676 q 187 694 226 694 z"},"=":{"x_min":0,"x_max":563,"ha":563,"o":"m 523 203 l 523 182 q 523 153 520 145 q 516 138 495 138 l 485 137 l 469 136 l 458 136 l 443 136 l 406 136 l 401 135 l 308 135 l 297 135 l 213 135 l 196 134 q 81 134 71 136 q 62 139 62 155 l 62 171 q 62 212 75 215 q 89 218 280 218 l 422 218 q 523 218 523 203 z m 530 381 l 530 359 q 530 322 519 318 q 509 314 432 314 l 152 314 q 86 314 77 316 q 68 318 68 335 l 68 341 l 68 346 l 68 352 l 69 374 q 69 395 93 395 l 103 396 l 332 397 l 456 397 q 530 397 530 381 z"},"a":{"x_min":0,"x_max":543,"ha":543,"o":"m 354 338 l 354 350 q 354 367 341 380 q 328 394 305 394 l 297 394 l 293 393 q 274 393 251 376 q 229 358 199 308 q 151 229 151 150 l 151 132 q 151 102 163 89 q 174 76 187 76 l 190 76 l 193 77 q 217 77 250 106 q 282 136 304 175 q 354 265 354 338 z m 497 78 q 497 48 445 19 q 409 -2 366 -2 l 357 -2 q 310 -2 310 64 q 310 92 296 92 q 293 92 262 64 q 230 35 197 19 q 164 2 122 2 q 79 2 50 34 q 20 66 20 115 l 20 125 q 21 180 44 241 q 67 302 107 350 q 193 450 296 451 q 315 451 343 439 q 371 427 375 427 q 380 427 389 433 l 401 442 q 420 452 445 452 l 464 452 q 501 452 501 416 q 501 381 467 278 q 433 176 433 126 q 433 101 455 101 l 465 103 q 497 103 497 78 z"},"L":{"x_min":0,"x_max":579,"ha":579,"o":"m 189 564 q 189 589 169 601 q 128 625 128 634 q 128 659 155 664 q 162 665 304 665 l 393 666 q 430 666 430 650 q 430 641 379 607 q 350 589 334 547 q 318 504 276 314 q 234 124 234 102 q 234 80 250 71 q 265 63 322 63 q 378 63 415 85 q 419 88 472 140 q 524 193 549 193 q 561 193 561 170 q 561 162 539 90 q 516 18 505 9 q 494 -1 420 -1 l 407 -1 l 393 0 l 335 0 l 132 0 q 35 0 32 0 q 9 4 9 24 q 9 35 26 48 l 36 54 q 54 64 57 67 q 77 86 91 127 q 105 168 147 362 q 189 555 189 564 z"},"3":{"x_min":0,"x_max":536,"ha":536,"o":"m 21 67 q 21 119 68 119 q 92 119 126 81 q 161 43 198 43 q 255 43 294 86 q 333 128 333 182 q 333 235 305 263 q 285 282 235 290 q 185 299 185 322 q 185 340 242 363 q 364 413 364 494 q 364 520 345 537 q 325 554 293 554 q 261 554 227 531 q 163 487 154 487 q 134 487 134 506 q 134 524 152 560 q 170 595 194 611 q 243 644 329 644 l 345 644 q 416 644 460 612 q 505 580 505 533 q 505 486 482 453 q 460 420 419 389 q 377 357 377 350 q 377 348 409 325 q 440 303 456 274 q 471 246 471 198 q 471 108 389 40 q 353 10 299 -10 q 244 -30 182 -30 l 166 -30 q 21 -30 21 67 z"},";":{"x_min":0,"x_max":292,"ha":292,"o":"m 201 82 l 201 69 q 201 8 149 -56 q 120 -93 79 -117 q 38 -142 21 -142 l 18 -142 q 6 -142 6 -123 q 6 -118 52 -75 q 98 -32 98 -1 q 98 5 75 32 q 52 60 52 89 q 52 118 77 135 q 101 151 127 151 l 136 151 q 167 151 184 133 q 201 114 201 82 z m 113 356 l 113 366 q 113 397 134 422 q 155 447 190 447 l 196 447 q 226 447 245 430 q 264 414 264 382 l 264 375 q 264 344 243 320 q 223 296 196 296 q 191 295 188 295 l 179 295 q 146 295 130 312 q 113 329 113 356 z"},"J":{"x_min":0,"x_max":473,"ha":473,"o":"m 517 643 q 517 627 492 607 q 467 587 455 555 q 444 523 401 330 q 358 137 318 68 q 278 -1 218 -40 q 158 -79 93 -79 l 81 -79 q 23 -79 0 -57 q -22 -36 -22 -3 l -22 7 q -22 34 -2 52 q 19 69 43 69 q 68 69 87 55 q 106 42 110 42 q 141 42 168 81 q 194 120 230 217 q 247 262 266 419 q 270 449 278 491 q 287 533 287 546 q 287 574 263 589 q 216 620 216 636 q 216 649 235 657 q 253 665 330 665 l 357 665 l 371 665 l 385 665 q 517 665 517 643 z"},"V":{"x_min":0,"x_max":646,"ha":646,"o":"m 304 514 q 304 222 328 177 q 345 177 496 451 q 550 548 550 590 q 550 606 536 620 q 523 635 523 642 q 523 665 605 665 l 623 664 q 728 664 728 643 q 728 623 691 597 q 654 571 636 546 q 634 544 479 293 q 323 42 322 41 q 286 -7 250 -7 l 235 -7 q 208 -7 201 25 q 194 58 173 289 q 153 521 147 551 q 142 581 123 597 q 92 623 92 632 l 92 643 q 92 662 166 662 l 182 663 q 204 663 227 664 q 250 665 268 665 l 301 665 q 354 665 354 646 q 354 633 333 613 q 312 593 308 583 q 304 574 304 514 z"},"\"":{"x_min":0,"x_max":444,"ha":444,"o":"m 217 693 l 236 693 q 271 693 271 671 l 271 662 q 271 626 198 436 q 187 405 163 405 l 159 405 l 156 405 q 138 405 138 417 l 138 428 l 139 432 l 141 473 q 143 484 144 496 q 145 508 145 515 l 146 545 l 146 571 l 148 601 l 149 615 q 149 657 166 675 q 182 693 217 693 z m 404 693 l 423 693 q 458 693 458 668 l 458 662 q 458 640 385 435 q 375 405 350 405 l 346 405 l 343 405 q 325 405 325 417 l 325 428 l 326 431 l 328 473 q 330 484 330 492 q 331 500 331 505 q 332 511 332 515 l 333 545 l 333 571 l 336 615 q 338 625 338 628 q 338 693 404 693 z"},"7":{"x_min":0,"x_max":535,"ha":535,"o":"m 555 627 l 555 619 q 555 601 539 561 q 502 468 235 20 q 211 -20 159 -20 q 107 -20 107 -1 q 107 34 145 94 q 182 155 301 321 q 419 487 419 507 q 419 533 316 533 q 265 533 232 521 q 200 509 164 487 q 129 464 119 464 q 104 464 104 479 q 104 520 141 607 q 158 647 182 647 l 193 647 l 204 646 l 216 645 q 255 643 292 643 l 304 643 q 317 644 330 644 l 368 644 l 484 641 q 555 641 555 627 z"},"S":{"x_min":0,"x_max":535,"ha":535,"o":"m 28 45 q 28 101 44 177 q 52 210 74 210 q 91 210 114 158 q 138 105 161 86 q 197 55 250 55 q 302 55 331 85 q 359 115 359 154 q 359 193 330 224 q 312 241 246 284 q 179 327 153 360 q 114 409 114 480 q 114 520 134 556 q 153 593 186 620 q 251 675 338 675 q 372 675 411 666 q 449 657 466 657 l 480 658 q 501 659 507 659 q 534 659 534 622 q 534 530 513 493 q 505 479 496 479 q 478 479 453 526 q 429 573 417 583 q 386 611 342 611 q 299 611 269 585 q 240 559 240 518 q 240 478 269 449 q 282 436 357 390 q 432 344 461 304 q 489 264 489 200 q 489 161 472 122 q 437 45 357 12 q 307 -9 259 -9 l 242 -9 q 209 -9 162 3 q 115 15 100 15 l 85 14 q 71 13 58 13 q 28 13 28 45 z"},"}":{"x_min":0,"x_max":388,"ha":388,"o":"m 331 582 q 331 545 306 463 q 281 380 281 347 q 281 313 319 292 q 345 277 345 273 l 345 264 q 345 260 288 229 q 258 214 246 183 q 233 151 229 85 q 224 19 213 -26 q 203 -71 177 -104 q 152 -137 110 -155 q 68 -173 21 -173 l 10 -173 q -12 -173 -12 -162 q -12 -150 40 -116 q 72 -95 89 -62 q 106 -29 119 60 q 132 149 146 182 q 161 214 179 229 q 198 244 216 254 q 235 264 235 268 q 235 268 216 283 q 198 297 189 314 q 181 331 181 364 q 181 396 199 464 q 218 533 218 579 q 218 625 178 661 q 157 680 157 688 q 157 706 186 706 q 331 706 331 582 z"},"Z":{"x_min":0,"x_max":608,"ha":608,"o":"m 9 19 l 9 34 q 9 58 225 317 q 440 576 440 592 q 440 602 396 602 q 299 602 262 585 q 225 568 186 526 q 146 483 131 483 q 108 483 108 505 q 108 553 143 631 q 158 666 189 666 l 226 666 l 246 665 l 399 665 q 601 665 608 663 q 628 659 628 646 q 628 607 585 551 q 578 541 389 314 q 200 88 200 72 q 200 63 263 63 q 368 63 425 92 q 453 105 493 147 q 534 188 548 188 q 570 188 570 167 q 570 156 551 95 q 531 35 525 26 q 508 -1 456 -1 l 421 -1 l 403 -1 l 104 -1 q 60 -1 48 0 l 30 0 q 9 4 9 19 z"},"x":{"x_min":0,"x_max":517,"ha":517,"o":"m 475 77 q 475 54 401 16 q 361 -4 332 -4 q 303 -4 289 14 q 283 22 259 80 q 234 139 224 139 q 210 139 170 80 q 131 22 116 9 q 102 -4 73 -4 q 43 -4 23 14 q 2 32 2 41 l 2 51 q 2 93 73 93 q 101 93 148 144 q 195 195 195 221 q 195 237 177 284 q 160 331 147 344 q 134 357 88 357 q 65 357 65 376 q 65 390 97 408 q 170 449 202 449 q 234 449 250 426 q 254 420 276 370 q 297 320 305 320 q 312 320 348 367 q 383 414 403 431 q 423 448 450 448 q 477 448 493 428 q 510 409 510 387 q 510 365 494 356 q 488 353 455 353 q 423 353 376 308 q 330 264 330 226 q 330 188 375 116 q 394 86 415 86 l 459 93 q 475 93 475 77 z"},")":{"x_min":0,"x_max":388,"ha":388,"o":"m 334 382 l 334 349 q 334 268 306 184 q 226 -56 19 -168 q -12 -185 -18 -185 q -40 -185 -40 -164 q -40 -155 6 -112 q 53 -68 87 -23 q 121 22 155 100 q 221 250 221 416 q 221 507 185 588 q 149 668 149 675 q 149 704 173 704 q 183 704 207 685 q 251 648 286 579 q 334 483 334 382 z"},"&":{"x_min":0,"x_max":750,"ha":750,"o":"m 268 62 l 275 62 l 279 63 q 319 63 356 88 q 374 99 374 112 l 374 117 q 374 123 288 252 q 250 309 236 309 q 213 309 184 271 q 156 232 156 188 l 156 177 q 156 133 188 98 q 220 62 268 62 z m 424 530 l 424 547 q 424 574 408 591 q 391 607 373 607 l 360 607 q 339 607 319 587 q 298 566 298 540 l 296 526 l 296 513 q 296 481 323 434 q 330 421 339 421 l 341 421 q 355 421 389 455 q 422 488 422 518 q 424 527 424 530 z m 582 377 q 665 377 687 362 q 695 356 695 353 q 695 334 672 319 q 634 293 625 280 q 552 173 552 160 q 552 137 576 110 q 600 83 629 74 q 659 64 659 51 q 659 30 630 16 q 601 1 539 1 q 532 1 502 10 q 473 19 426 19 q 379 19 357 13 q 258 -11 242 -11 l 225 -11 q 81 -11 36 82 q 22 112 22 144 l 22 160 q 22 202 51 248 q 52 250 161 343 q 181 360 181 396 q 181 400 177 434 q 172 467 172 493 q 172 520 188 555 q 204 591 234 617 q 288 663 364 663 q 440 663 477 630 q 514 596 514 555 q 514 514 492 478 q 471 442 451 422 q 402 374 402 367 q 402 333 435 290 q 468 247 485 247 q 502 247 525 274 q 548 302 548 324 l 544 355 q 544 377 582 377 z"},"_":{"x_min":0,"x_max":511,"ha":511,"o":"m 448 -132 l 402 -132 l 397 -132 l 368 -132 l 357 -131 l 334 -131 l 323 -131 l 300 -131 l 289 -130 l 266 -130 l 254 -130 l 231 -130 l 220 -129 q -23 -129 -23 -118 l -23 -101 q -23 -76 -20 -71 q -17 -66 32 -66 l 89 -66 l 95 -67 l 243 -69 q 491 -69 491 -81 l 491 -92 l 491 -98 q 491 -123 488 -128 q 484 -132 448 -132 z"},"v":{"x_min":0,"x_max":509,"ha":509,"o":"m 239 164 q 239 117 257 117 q 291 117 341 186 q 391 255 391 310 q 391 327 380 362 q 369 397 369 399 q 369 421 392 436 q 415 451 443 451 q 471 451 490 436 q 508 420 508 394 l 508 384 q 508 353 466 270 q 389 120 289 48 q 234 9 204 9 q 146 9 131 46 q 127 57 127 145 l 124 274 q 124 318 110 338 q 104 346 79 346 q 46 346 46 377 q 46 397 97 422 q 148 446 188 446 q 227 446 243 404 q 247 394 247 330 l 245 258 l 243 234 l 241 210 q 239 179 239 164 z"},"O":{"x_min":0,"x_max":728,"ha":728,"o":"m 202 240 l 202 209 q 202 136 237 91 q 271 46 323 46 l 337 46 q 379 46 420 75 q 499 131 541 274 q 563 352 563 418 l 563 450 q 563 524 531 568 q 498 613 437 613 q 346 613 281 512 q 246 457 224 379 q 202 301 202 240 z m 435 673 l 458 673 q 513 673 563 652 q 657 614 694 515 q 713 466 713 409 l 713 397 q 713 320 680 241 q 647 162 593 104 q 481 -15 321 -15 l 310 -15 q 253 -15 202 6 q 106 47 71 143 q 53 192 53 249 l 53 260 q 53 333 83 411 q 113 488 167 547 q 222 607 293 640 q 365 673 435 673 z"},"(":{"x_min":0,"x_max":388,"ha":388,"o":"m 238 -184 q 221 -184 184 -145 q 148 -106 121 -50 q 78 38 78 138 l 78 171 q 78 243 104 330 q 130 417 181 492 q 231 566 290 616 q 394 704 430 704 q 452 704 452 683 q 452 676 401 626 q 350 577 319 533 q 287 489 255 416 q 191 272 191 103 q 191 9 234 -86 q 263 -147 263 -157 q 263 -184 238 -184 z"},"C":{"x_min":0,"x_max":643,"ha":643,"o":"m 664 621 q 664 523 640 485 q 633 473 625 473 q 612 473 581 517 q 550 562 530 577 q 493 604 449 604 q 353 604 285 506 q 211 398 211 255 q 211 168 252 120 q 293 72 368 72 q 416 72 492 113 q 568 155 575 155 q 590 155 590 135 q 590 116 562 78 q 533 40 501 23 q 494 19 428 5 q 363 -8 324 -8 l 307 -8 q 261 -8 209 12 q 112 49 75 148 q 58 195 58 245 l 58 262 q 58 334 88 413 q 118 491 176 552 q 292 674 453 674 q 481 674 517 667 l 549 661 q 588 653 594 653 l 607 654 l 632 657 q 664 657 664 621 z"},"W":{"x_min":0,"x_max":902,"ha":902,"o":"m 584 647 q 640 647 640 549 l 639 525 l 635 477 q 635 224 647 224 q 664 224 731 380 q 798 535 798 580 l 793 594 q 782 620 782 621 q 782 644 813 652 q 845 661 909 661 q 974 661 974 635 q 974 624 953 601 l 937 586 q 912 565 904 554 l 893 533 l 871 486 l 785 318 q 665 84 644 51 q 624 18 611 10 q 599 2 574 2 q 530 2 519 62 q 517 73 506 243 q 496 413 489 413 l 478 397 l 465 375 q 447 340 439 326 l 400 252 q 337 133 306 88 q 250 7 206 7 q 169 7 163 69 q 155 152 155 333 q 155 515 149 542 q 143 568 126 593 q 109 617 109 630 l 111 640 q 124 656 204 656 q 284 656 315 646 q 346 636 346 617 l 326 588 q 307 560 299 517 q 291 475 291 356 q 291 237 311 237 q 330 237 404 395 q 423 436 448 507 q 472 578 488 603 q 504 628 527 638 q 549 647 584 647 z"},"A":{"x_min":0,"x_max":661,"ha":661,"o":"m 282 279 l 385 279 q 410 279 410 291 l 410 293 l 410 296 l 407 339 l 405 362 l 404 373 q 404 376 404 379 l 402 393 l 401 407 q 399 424 398 433 q 397 441 396 450 q 396 458 395 466 q 394 473 393 481 q 392 490 392 502 q 392 515 387 515 q 381 515 316 403 q 250 291 250 284 l 250 282 q 250 279 282 279 z m 176 18 q 176 0 72 0 q -33 0 -33 23 q -33 45 6 66 q 44 87 72 128 q 99 169 144 243 q 188 316 220 369 q 253 421 300 509 q 348 597 362 615 q 403 669 450 669 l 464 669 q 464 669 464 669 q 504 669 515 611 q 520 583 528 483 q 536 384 549 251 q 562 118 563 109 q 570 78 586 67 q 622 42 622 31 q 622 9 593 2 q 583 0 473 0 l 428 -1 l 414 -1 q 354 -1 354 23 q 354 27 374 47 q 394 66 405 87 q 416 108 416 150 q 416 193 404 205 q 391 217 303 217 q 216 217 200 196 q 159 142 159 66 q 159 47 168 33 q 176 19 176 18 z"},"f":{"x_min":0,"x_max":342,"ha":342,"o":"m -4 -96 q 25 -70 44 -13 q 62 43 85 158 q 107 272 107 288 q 107 303 105 317 q 103 332 100 360 q 97 388 90 399 q 83 410 83 414 q 83 425 120 462 q 156 499 181 550 q 227 644 315 681 q 353 697 385 697 l 399 697 q 431 697 454 685 q 476 672 476 645 q 476 618 454 593 q 442 581 425 581 q 408 581 384 603 q 360 625 347 625 q 318 625 301 585 q 284 545 284 486 q 284 458 315 446 q 357 429 357 411 q 357 409 302 375 q 261 350 242 302 q 235 287 196 115 q 157 -56 125 -107 q 104 -140 68 -164 q 32 -188 -1 -188 q -34 -188 -56 -174 q -78 -160 -78 -139 q -78 -105 -41 -105 q -33 -107 -25 -107 q -17 -107 -4 -96 z"},"Q":{"x_min":0,"x_max":723,"ha":723,"o":"m 196 231 l 196 208 q 196 139 225 95 q 253 51 303 51 l 310 51 q 311 51 312 51 q 360 51 394 71 q 470 117 514 266 q 533 331 533 397 l 533 427 q 533 494 505 538 q 477 582 422 582 l 408 582 q 375 582 337 558 q 262 508 217 360 q 196 290 196 231 z m 96 339 l 96 353 q 96 410 114 450 q 132 491 172 529 q 256 609 295 628 q 333 647 396 647 l 435 647 q 437 647 438 647 q 490 647 540 629 q 692 574 692 368 q 692 270 628 178 q 587 120 521 71 q 423 0 423 -6 q 423 -32 515 -72 q 570 -95 633 -95 q 695 -95 695 -114 q 695 -137 645 -159 q 594 -182 548 -182 q 501 -182 455 -164 q 451 -163 353 -112 q 254 -61 249 -59 l 234 -55 q 190 -42 176 -36 q 146 -22 146 22 l 147 32 l 148 42 q 149 56 149 62 q 149 69 122 165 q 96 262 96 339 z"},"w":{"x_min":0,"x_max":739,"ha":739,"o":"m 681 436 q 697 436 709 423 q 721 409 721 382 q 721 354 696 285 q 671 215 630 151 q 588 86 547 48 q 506 9 474 9 q 427 9 395 48 q 382 63 363 118 q 343 173 339 173 q 334 173 295 131 q 255 89 229 70 q 204 51 173 51 q 143 51 123 70 q 113 80 113 136 l 114 168 q 114 185 114 202 q 114 262 95 295 q 62 351 62 378 q 62 405 92 423 q 120 440 160 441 q 241 441 242 357 l 231 197 q 231 141 251 141 q 270 141 319 230 q 338 266 360 327 q 382 388 392 399 q 419 431 461 431 q 494 431 494 323 q 494 317 492 285 l 489 247 q 487 216 487 173 q 487 130 504 130 q 518 130 541 149 q 563 167 594 224 q 625 282 625 341 l 622 368 l 620 380 q 620 436 681 436 z"},"-":{"x_min":0,"x_max":347,"ha":347,"o":"m 293 286 q 321 286 321 275 q 321 220 299 199 q 290 189 252 189 l 198 189 l 194 190 l 165 190 q 39 190 39 201 l 39 204 q 39 240 55 270 q 63 284 84 284 l 91 285 l 269 286 z"},"E":{"x_min":0,"x_max":610,"ha":610,"o":"m 9 28 q 9 41 41 56 q 72 72 84 102 q 95 133 139 330 q 183 526 183 554 q 183 581 167 598 q 132 635 132 637 q 132 659 168 663 q 188 665 374 665 l 397 664 l 500 665 l 521 665 q 596 665 607 651 q 614 643 614 589 q 614 536 595 517 l 584 510 q 572 510 557 527 q 524 565 516 570 q 476 596 414 596 q 371 596 346 551 q 303 474 303 414 q 303 386 349 386 q 380 386 395 393 q 409 399 431 421 q 453 443 461 443 q 490 443 490 422 q 490 342 463 270 q 453 242 435 242 q 417 242 392 275 q 367 309 329 309 q 292 309 275 285 q 244 237 244 135 q 244 90 258 79 q 272 68 330 68 q 388 68 420 83 q 453 98 491 131 q 530 164 545 164 q 558 164 558 146 q 558 127 542 84 q 526 41 513 23 q 495 0 412 0 l 392 0 l 70 0 q 9 0 9 28 z"},"s":{"x_min":0,"x_max":414,"ha":414,"o":"m 17 66 q 17 94 28 116 q 39 137 59 137 q 79 137 102 103 q 125 69 139 60 q 153 52 180 52 q 207 52 222 61 q 249 77 249 102 q 249 128 230 145 q 226 149 173 183 q 119 218 97 244 q 75 271 75 311 q 75 371 129 414 q 184 458 255 458 l 267 458 q 344 458 375 443 q 396 433 396 404 l 396 393 q 396 363 385 343 q 375 323 356 323 q 336 323 310 360 q 283 397 246 397 q 222 397 205 383 q 188 369 188 347 q 188 325 212 306 q 223 298 270 271 q 316 244 340 217 q 363 190 363 135 q 363 81 309 36 q 254 -9 174 -9 l 149 -9 q 78 -9 42 7 q 17 20 17 55 z"},">":{"x_min":0,"x_max":560,"ha":560,"o":"m 394 259 q 394 271 272 334 q 150 397 122 416 q 95 435 95 455 q 95 503 115 503 q 135 503 436 340 q 515 297 515 284 l 515 275 q 515 233 495 221 q 464 203 280 114 q 97 25 92 25 q 73 25 73 59 q 73 92 110 114 q 121 121 143 132 l 211 167 q 241 181 252 187 q 262 192 271 196 l 322 221 q 394 258 394 259 z"},"l":{"x_min":0,"x_max":308,"ha":308,"o":"m 265 69 q 265 49 198 21 q 132 -7 99 -7 q 39 -7 39 47 l 39 56 q 39 73 62 149 q 86 225 126 399 q 167 574 167 591 q 167 608 140 626 q 113 644 113 655 q 113 674 146 683 q 205 697 269 697 l 276 697 q 312 697 312 673 l 312 664 q 312 644 291 563 q 270 482 232 319 q 194 156 194 117 q 194 78 222 78 l 255 83 q 265 83 265 69 z"},"8":{"x_min":0,"x_max":541,"ha":541,"o":"m 147 156 l 147 137 q 147 99 171 72 q 196 45 234 45 l 238 45 q 282 45 315 82 q 348 118 348 166 l 348 183 q 348 224 314 261 q 280 299 248 299 l 245 299 q 216 299 182 252 q 147 206 147 156 z m 236 479 q 236 454 265 422 q 293 390 322 390 q 351 390 378 433 q 406 476 406 517 l 406 524 q 406 562 385 585 q 365 608 337 608 l 328 608 q 291 608 263 577 q 235 546 235 507 l 235 488 q 236 482 236 479 z m 180 340 q 180 349 163 366 q 116 415 116 477 q 116 512 134 549 q 151 585 183 612 q 247 667 337 667 q 427 667 474 627 q 522 587 522 529 l 522 518 q 522 478 500 447 q 478 416 458 401 q 437 386 415 372 q 392 358 392 358 q 392 349 418 323 q 444 297 460 268 q 477 238 477 197 q 477 112 408 51 q 373 20 327 4 q 281 -13 239 -13 l 214 -13 q 134 -13 80 31 q 26 75 26 137 q 26 252 152 319 q 180 334 180 340 z"},"\\":{"x_min":0,"x_max":481,"ha":481,"o":"m 432 -31 q 432 -59 389 -59 q 367 -59 358 -53 q 350 -47 332 -3 q 94 601 94 655 l 94 662 q 94 690 139 690 l 147 690 q 172 690 183 664 q 211 594 412 42 q 432 -14 432 -31 z"},"e":{"x_min":0,"x_max":464,"ha":464,"o":"m 190 245 q 205 248 212 248 q 247 248 299 280 q 336 303 336 338 l 336 348 q 336 375 323 387 q 310 400 295 400 l 286 400 q 281 399 279 399 q 246 399 218 355 q 178 291 178 262 l 178 251 q 178 245 187 245 z m 29 140 l 29 159 q 29 213 56 271 q 110 388 221 436 q 269 457 313 457 l 323 457 q 379 457 415 429 q 451 400 451 345 q 451 232 239 200 q 189 192 182 189 q 159 180 159 142 q 159 68 247 68 q 271 68 329 95 q 387 122 391 122 q 407 122 407 103 q 407 72 332 32 q 257 -9 191 -9 l 181 -9 q 113 -9 71 33 q 29 75 29 140 z"},"b":{"x_min":0,"x_max":532,"ha":532,"o":"m 382 293 l 382 305 q 382 336 370 354 q 357 372 337 372 l 331 372 q 283 372 227 290 q 199 250 185 200 q 170 150 170 116 l 170 104 q 170 82 187 66 q 203 50 229 50 l 233 50 q 256 50 283 69 q 310 87 333 128 q 382 217 382 293 z m 32 64 l 32 74 q 32 122 62 198 q 73 224 115 402 q 158 581 158 590 q 158 614 134 626 q 109 638 109 654 q 109 670 132 679 q 179 698 258 698 q 299 698 299 656 q 299 635 273 543 q 247 452 247 418 q 247 384 255 384 q 260 384 281 397 q 303 410 330 422 q 358 434 402 434 q 446 434 478 398 q 510 363 510 315 l 510 303 q 510 255 487 196 q 464 138 423 93 q 337 0 230 0 q 208 0 184 5 q 159 9 156 9 q 153 9 136 5 q 120 1 105 1 q 74 1 47 23 q 32 36 32 64 z"},"%":{"x_min":0,"x_max":819,"ha":819,"o":"m 551 96 l 551 86 q 551 58 562 43 q 574 28 589 28 l 596 28 l 599 29 q 629 29 659 84 q 698 157 698 231 l 698 248 q 698 275 687 288 q 675 301 660 301 l 654 301 q 620 301 590 246 q 551 173 551 96 z m 187 419 l 187 412 q 187 384 197 367 q 208 351 229 351 l 231 351 l 234 351 q 269 351 295 407 q 333 491 333 552 l 333 570 q 333 598 322 611 q 310 624 295 624 l 289 624 q 255 624 227 572 q 187 497 187 419 z m 787 223 l 787 211 q 787 178 772 134 q 757 90 728 55 q 670 -16 589 -16 l 584 -16 q 531 -16 497 18 q 463 52 463 112 l 464 118 q 464 159 480 201 q 511 281 575 320 q 613 344 649 344 l 660 345 l 666 344 l 672 344 q 723 344 755 310 q 787 275 787 223 z m 721 641 q 721 632 710 615 q 699 598 635 518 q 572 438 556 417 q 541 396 520 371 q 500 345 489 332 q 479 318 467 304 l 445 275 q 426 252 403 222 q 380 192 373 183 q 365 173 337 132 q 309 91 297 78 q 230 -4 203 -4 l 194 -4 q 168 -4 168 8 q 168 16 184 42 q 200 67 224 95 l 247 120 q 254 128 270 147 l 292 176 q 303 190 317 208 q 330 225 353 253 q 375 281 382 290 l 397 309 q 406 322 461 389 q 516 456 572 533 q 628 611 633 617 q 663 653 688 653 l 696 653 q 721 653 721 641 z m 233 308 l 217 308 q 166 308 133 341 q 99 375 99 432 l 99 438 l 100 443 q 100 483 116 527 q 133 571 162 603 q 190 635 226 651 q 262 667 293 667 l 299 667 l 305 667 q 358 667 390 633 q 422 598 422 542 l 422 537 q 422 494 406 451 q 374 368 309 331 q 270 308 233 308 z"},"m":{"x_min":0,"x_max":817,"ha":817,"o":"m 95 15 q 64 15 64 100 q 64 138 76 212 q 88 286 88 301 l 80 344 q 80 384 106 402 q 133 419 168 419 q 183 419 197 399 q 226 358 228 358 q 232 358 301 404 q 370 450 414 450 q 458 450 480 423 q 488 413 499 383 q 510 353 518 353 q 526 353 557 375 q 588 397 593 399 q 634 422 669 422 q 704 422 729 397 q 754 373 754 331 q 754 289 742 235 q 731 180 731 134 q 731 87 734 78 q 737 69 741 69 q 746 69 746 64 q 746 59 732 49 q 691 19 655 19 q 618 19 603 42 q 587 65 587 94 q 587 123 601 187 q 615 250 615 312 q 615 345 590 345 q 559 345 505 250 q 480 204 461 125 q 442 45 418 21 q 395 -2 321 -2 q 296 -2 296 32 l 302 52 l 315 93 q 371 265 371 322 q 371 353 349 353 q 305 353 262 297 q 218 242 194 158 q 170 75 158 54 q 137 15 95 15 z"},"#":{"x_min":0,"x_max":552,"ha":552,"o":"m 236 269 l 312 269 q 330 269 334 281 q 365 364 365 388 l 365 392 q 365 396 357 396 l 271 396 q 261 396 255 382 q 224 312 224 274 q 224 269 236 269 z m 174 370 q 174 394 141 396 q 91 401 91 426 q 91 447 106 456 q 121 464 153 469 q 185 474 200 488 q 214 503 232 560 q 249 618 255 627 q 268 647 289 647 q 324 647 324 622 q 324 617 307 555 q 290 493 290 482 q 290 471 333 471 q 376 471 384 477 q 392 484 415 556 q 438 627 439 630 q 450 647 477 647 q 504 647 504 630 q 504 617 491 566 q 478 514 478 494 q 478 481 511 470 q 545 458 545 441 q 545 415 534 407 q 523 400 488 396 q 453 393 445 385 q 437 378 424 335 q 412 293 412 282 q 412 271 462 268 q 498 265 498 241 q 498 212 480 202 q 475 199 438 196 q 401 193 384 173 q 374 162 354 96 q 334 31 325 21 q 316 10 291 10 q 265 10 265 32 q 265 41 283 105 q 300 170 300 173 q 300 194 245 194 q 212 194 204 185 q 196 176 173 105 q 150 34 148 29 q 137 10 113 10 l 98 10 q 82 10 82 24 q 82 34 98 98 q 115 162 115 178 q 115 190 78 197 q 41 203 41 213 l 41 227 q 41 251 60 262 q 66 266 99 269 q 132 272 142 281 q 151 289 163 322 q 174 355 174 370 z"},",":{"x_min":0,"x_max":278,"ha":278,"o":"m 118 144 l 135 144 q 164 144 179 123 q 195 103 195 68 l 195 64 q 195 1 148 -62 q 116 -107 73 -130 q 30 -153 16 -153 l 13 -153 q 2 -153 2 -133 l 2 -130 l 2 -126 q 2 -119 21 -106 q 93 -56 93 -14 q 93 -5 70 23 q 46 51 46 78 q 46 104 68 124 q 89 144 118 144 z"},"n":{"x_min":0,"x_max":571,"ha":571,"o":"m 387 0 q 330 0 330 63 q 330 103 355 190 q 380 277 380 318 q 380 359 351 359 q 329 359 298 330 q 220 256 184 80 q 176 42 171 32 q 153 0 114 0 q 75 0 62 11 q 50 22 50 56 l 50 66 q 50 104 77 189 q 104 274 104 297 q 104 319 90 327 q 69 339 69 363 q 69 387 95 407 q 140 441 170 441 q 200 441 216 418 q 232 396 235 366 q 237 336 240 336 q 243 337 279 369 q 363 444 431 444 l 432 444 q 474 444 495 417 q 516 391 516 360 q 516 329 493 234 q 470 139 470 117 q 470 95 477 85 q 484 75 501 75 l 516 79 q 521 79 521 73 q 521 53 474 27 q 426 0 387 0 z"},"h":{"x_min":0,"x_max":559,"ha":559,"o":"m 474 62 q 474 46 445 28 q 416 10 386 10 q 356 10 339 23 q 322 37 322 63 q 322 90 343 168 q 364 246 364 300 q 364 353 332 353 q 284 353 226 243 q 199 192 183 118 q 167 44 157 30 q 137 0 76 0 q 50 0 40 9 q 29 18 29 39 l 29 51 q 29 84 56 161 q 82 238 99 311 q 157 561 157 581 q 157 602 135 619 q 112 636 112 651 q 112 659 130 668 q 185 696 228 696 q 271 696 281 685 q 299 665 299 642 q 299 634 274 529 q 250 423 250 376 q 250 364 256 364 q 256 364 313 396 q 371 427 413 427 q 456 427 478 398 q 501 369 501 335 q 501 300 494 255 q 487 210 484 188 q 482 166 476 131 q 470 97 470 68 q 474 62 474 62 z"},"z":{"x_min":0,"x_max":470,"ha":470,"o":"m 80 296 q 63 296 63 321 q 63 345 79 383 q 94 422 111 435 q 127 448 175 448 q 222 448 270 439 q 318 430 344 430 q 369 430 398 439 q 427 448 437 448 q 454 448 454 421 q 454 394 426 357 q 397 320 289 221 q 180 123 180 100 q 180 96 192 92 q 253 73 304 73 q 333 73 356 107 q 380 141 402 141 q 425 141 425 118 q 425 54 388 12 q 366 -13 294 -13 q 253 -13 200 2 q 146 17 122 17 q 97 17 67 9 q 37 0 33 0 q 10 0 10 29 q 10 57 51 101 q 92 144 196 238 q 299 332 299 347 q 299 358 216 358 q 169 358 143 335 q 98 296 80 296 z"},"B":{"x_min":0,"x_max":632,"ha":632,"o":"m 217 94 l 217 83 q 217 57 267 57 l 288 57 q 349 57 391 99 q 434 142 434 200 l 434 220 q 434 268 399 294 q 364 320 310 320 l 305 320 q 269 320 260 294 q 217 174 217 94 z m 346 378 q 397 378 434 419 q 470 459 470 516 l 470 520 q 470 560 446 584 q 421 609 380 609 l 364 609 q 335 609 324 581 q 313 553 294 457 l 293 454 l 292 447 l 291 443 l 288 429 q 281 404 281 390 l 281 384 q 281 376 297 376 l 327 376 q 339 378 346 378 z m 155 603 q 122 631 122 639 q 122 656 145 660 q 167 665 301 665 l 327 665 l 408 665 q 555 665 595 586 q 610 559 610 528 q 610 433 515 381 q 502 374 481 366 q 459 358 459 352 l 498 333 q 579 292 579 192 q 579 152 557 114 q 513 38 409 13 q 351 -1 273 -1 l 221 -1 l 208 0 l 182 0 l 54 -1 l 28 -1 q -6 -1 -6 24 q -6 37 41 61 q 68 75 77 105 q 86 135 117 278 q 148 422 161 476 q 173 529 173 559 q 173 588 155 603 z"},"K":{"x_min":0,"x_max":688,"ha":688,"o":"m 348 664 q 405 664 405 648 q 405 633 379 608 q 333 566 309 471 q 294 413 294 393 q 294 374 306 374 q 335 374 469 503 q 531 563 531 594 l 527 607 l 515 632 q 515 650 524 657 q 533 664 582 664 l 605 664 l 652 663 l 696 663 q 746 663 746 651 q 746 650 643 568 q 540 486 479 428 q 440 391 440 365 q 440 352 463 314 q 485 275 520 207 q 555 139 572 114 q 588 89 618 64 q 648 40 648 26 q 648 8 619 4 q 590 -1 479 -1 l 457 -1 q 433 -1 420 9 q 408 18 408 48 l 411 81 q 411 144 356 236 q 323 292 293 292 q 273 292 251 206 q 238 154 238 119 q 238 84 256 57 q 274 30 274 27 q 274 7 250 2 q 235 0 123 0 q 10 0 10 20 q 10 36 49 63 q 80 84 98 146 q 104 166 146 353 q 187 540 187 563 q 187 587 161 606 q 136 625 136 632 q 136 650 149 657 q 162 664 211 664 z"},"R":{"x_min":0,"x_max":657,"ha":657,"o":"m 295 347 l 316 347 q 386 347 432 388 q 478 430 478 495 l 478 511 q 477 520 477 523 q 477 561 449 584 q 421 606 392 606 l 370 606 q 337 606 329 583 q 320 559 316 540 q 312 521 311 516 q 310 511 307 502 q 305 493 301 474 q 298 455 287 416 q 277 376 277 359 q 277 347 295 347 z m 160 598 q 156 603 141 614 q 126 625 126 637 q 126 654 148 658 q 170 663 312 663 l 379 664 l 396 664 q 567 664 608 573 q 621 544 621 512 q 621 413 517 353 q 471 326 471 313 q 471 306 482 279 q 493 252 519 179 q 544 106 553 92 q 562 78 593 60 q 624 42 624 29 q 624 16 612 7 q 600 -1 534 -1 l 517 -1 q 456 -1 435 22 q 415 45 385 140 q 356 235 338 262 q 321 289 277 289 q 269 289 260 272 q 229 210 229 119 q 229 75 257 38 q 268 23 268 14 q 268 0 131 0 q -5 0 -5 19 q -5 42 41 60 q 66 69 81 116 q 82 120 128 320 q 173 521 173 551 q 173 581 160 598 z"},"T":{"x_min":0,"x_max":614,"ha":614,"o":"m 323 0 l 136 5 q 114 5 114 16 q 114 27 168 66 q 198 87 216 140 q 234 192 269 358 q 304 524 304 563 q 304 594 271 594 q 238 594 205 570 q 197 565 159 522 q 121 479 95 479 q 85 479 85 501 q 85 580 113 639 q 121 656 173 656 q 197 656 251 658 l 522 664 l 587 665 l 648 667 q 670 667 670 646 q 670 576 654 507 q 649 483 631 483 q 618 483 598 523 q 578 563 553 580 q 529 597 495 597 q 465 597 447 535 q 446 531 377 229 q 359 147 359 112 q 359 76 378 61 l 389 55 l 400 49 q 422 38 422 28 q 422 0 372 0 l 356 0 l 340 0 z"},"P":{"x_min":0,"x_max":605,"ha":605,"o":"m 380 603 l 372 603 q 336 603 324 567 q 311 531 291 425 l 286 406 l 285 398 l 282 386 l 278 367 q 274 347 274 345 l 274 341 q 274 328 314 328 l 318 328 l 323 328 l 335 329 q 340 329 344 329 q 400 329 438 380 q 476 430 476 490 l 476 502 q 476 547 450 575 q 425 603 380 603 z m 41 60 q 69 76 83 123 q 88 138 135 348 l 143 385 q 148 410 162 467 q 175 524 175 553 q 175 582 151 604 l 138 614 q 126 625 126 633 q 126 653 147 658 q 168 663 309 663 l 374 664 l 401 664 q 559 664 605 570 q 621 537 621 498 l 621 485 q 621 441 595 396 q 545 308 436 278 q 394 267 305 267 q 265 267 257 250 q 229 188 229 100 q 229 76 264 55 q 300 35 300 20 q 300 -1 244 -1 l 179 -1 l 166 -1 l 139 -1 q 22 -1 14 1 q 0 4 0 21 q 0 37 41 60 z"},"|":{"x_min":0,"x_max":401,"ha":401,"o":"m 203 730 l 253 730 q 270 730 270 697 l 270 648 l 270 638 l 267 528 l 267 518 l 266 488 l 264 418 l 263 389 q 263 378 263 369 l 262 358 q 262 348 262 338 l 261 318 l 259 249 l 258 209 q 257 189 257 179 l 256 159 l 254 99 l 253 79 l 253 49 l 251 -10 l 250 -70 q 250 -168 244 -176 q 239 -184 209 -184 l 200 -184 q 170 -184 166 -177 q 162 -170 162 -141 l 162 -102 l 166 8 l 167 48 l 167 68 l 168 108 l 169 118 l 169 147 l 183 606 l 184 646 l 185 667 l 186 687 q 186 730 203 730 z"},"t":{"x_min":0,"x_max":358,"ha":358,"o":"m 371 418 q 371 393 317 380 q 264 368 251 351 q 239 334 216 250 q 193 165 193 126 q 193 87 222 87 q 236 87 265 98 q 294 108 301 108 q 316 108 316 89 q 316 58 252 25 q 188 -8 147 -8 q 106 -8 83 17 q 61 42 61 78 l 61 87 q 61 120 88 229 q 116 337 116 348 q 116 362 88 376 q 61 391 61 411 q 61 431 89 439 q 135 453 141 460 q 147 467 163 504 q 179 541 189 550 q 224 580 262 580 q 286 580 286 555 l 278 482 q 278 464 289 455 q 299 446 335 441 q 371 436 371 418 z"},"M":{"x_min":0,"x_max":877,"ha":877,"o":"m 795 34 q 795 0 630 0 l 602 0 q 555 0 555 19 q 555 22 569 41 q 584 60 591 80 q 624 168 635 210 q 695 431 695 494 l 692 505 q 686 505 563 301 q 440 96 425 75 q 388 22 348 22 q 334 22 301 250 q 267 478 258 478 q 252 478 245 451 q 163 173 163 57 l 167 42 q 173 22 173 19 q 173 4 108 4 q 44 4 19 16 q 3 24 3 43 l 17 57 l 36 70 q 63 91 80 136 q 97 181 142 352 q 187 522 187 549 q 187 576 166 606 q 144 636 144 648 q 144 664 204 664 l 233 664 q 322 664 343 653 q 364 643 375 612 q 386 582 408 406 q 431 229 438 229 q 452 229 549 397 q 646 565 677 604 q 708 643 725 653 q 742 664 798 664 q 912 664 912 643 l 905 630 l 875 595 q 839 546 830 511 q 821 476 788 312 q 756 148 756 121 q 756 95 767 77 l 779 61 q 795 42 795 34 z"},"g":{"x_min":0,"x_max":472,"ha":472,"o":"m 298 -121 l 298 -110 q 298 -86 266 -68 q 208 -37 153 -37 l 150 -37 q 117 -37 90 -64 q 62 -92 62 -116 l 62 -119 l 62 -122 q 62 -146 91 -169 q 120 -191 167 -191 l 192 -191 q 236 -191 267 -169 q 298 -147 298 -121 z m 309 349 q 309 399 266 399 l 263 399 q 228 399 205 357 q 172 297 172 247 l 171 240 l 171 226 l 171 218 q 171 191 183 176 q 195 161 212 161 l 220 161 q 248 161 277 207 q 307 253 307 308 q 308 315 308 319 l 309 333 z m 491 409 q 491 389 475 379 q 438 357 437 355 q 431 347 424 309 q 417 271 416 267 q 404 220 372 187 q 340 154 308 142 q 276 129 235 123 q 193 116 189 114 q 166 103 166 79 q 166 60 246 39 q 326 18 356 -2 q 407 -35 407 -87 q 407 -150 333 -195 q 260 -239 162 -239 q 64 -239 11 -208 q -42 -178 -42 -131 q -42 -105 -29 -88 q -16 -71 27 -44 q 71 -17 71 0 l 61 19 q 53 36 53 56 q 53 77 83 102 q 112 126 112 129 q 112 137 97 152 q 55 194 55 238 q 55 283 73 322 q 92 362 124 389 q 187 442 279 442 q 295 442 333 437 q 370 432 396 432 l 451 436 q 491 436 491 409 z"},"j":{"x_min":0,"x_max":309,"ha":309,"o":"m 241 456 q 278 455 278 396 q 278 365 231 171 q 183 -23 154 -82 q 125 -140 73 -180 q 20 -220 -29 -220 l -38 -220 q -65 -220 -84 -207 q -103 -194 -103 -173 q -103 -128 -51 -128 l -9 -133 q 30 -133 55 -52 q 60 -36 84 75 q 109 186 120 233 q 131 280 131 311 q 131 343 125 350 q 119 357 93 366 q 66 374 66 387 q 66 408 102 423 q 181 456 233 456 z m 176 600 l 177 614 q 177 639 198 657 q 220 675 244 675 l 261 675 q 283 675 300 660 q 317 646 317 622 l 317 608 q 317 583 294 555 q 279 538 247 538 l 237 538 q 230 539 226 539 q 206 539 191 554 q 177 568 177 584 l 175 598 z"},"i":{"x_min":0,"x_max":315,"ha":315,"o":"m 111 -5 l 96 -5 q 73 -5 58 9 q 43 23 43 48 l 43 55 q 43 60 79 179 q 114 298 114 334 q 114 353 84 356 q 53 359 53 380 q 53 405 104 428 q 155 452 201 452 l 214 452 q 238 452 247 439 q 257 426 257 398 q 257 390 225 264 q 194 138 194 113 q 194 87 214 87 q 214 87 259 95 q 272 95 272 80 l 272 75 q 272 53 214 24 q 155 -5 111 -5 z m 302 605 q 302 576 282 557 q 263 537 243 537 l 231 536 l 219 536 q 195 536 178 550 q 162 564 162 583 l 161 587 l 161 603 q 161 628 180 651 q 199 673 234 673 l 239 673 q 264 673 282 660 q 301 647 301 625 l 302 621 z"},"y":{"x_min":0,"x_max":498,"ha":498,"o":"m 493 396 l 493 383 q 493 355 430 218 q 367 81 305 -5 q 243 -90 160 -159 q 101 -208 54 -208 q 27 -208 13 -196 q 0 -184 0 -175 q 0 -164 53 -145 q 106 -125 138 -96 q 190 -50 190 -3 q 190 60 102 296 q 95 313 75 331 q 56 349 56 368 q 56 386 82 404 q 126 435 154 435 q 182 435 196 423 q 234 389 249 228 q 259 121 272 121 q 294 121 331 197 q 367 272 367 322 l 361 394 q 361 418 384 433 q 407 447 438 447 q 468 447 480 438 q 493 428 493 396 z"},"@":{"x_min":0,"x_max":758,"ha":758,"o":"m 481 377 l 481 386 q 481 418 446 418 l 435 418 q 397 418 360 354 q 323 291 323 238 l 323 219 q 323 175 354 175 l 359 175 q 374 175 399 195 q 423 215 439 244 q 481 323 481 377 z m 579 23 q 579 4 484 -28 q 425 -48 357 -48 q 290 -48 236 -23 q 135 23 95 120 q 70 180 70 251 q 70 322 100 394 q 130 466 187 522 q 243 578 315 605 q 387 632 450 632 q 575 632 650 570 q 690 537 713 489 q 735 440 735 386 q 735 274 668 196 q 605 124 516 124 q 474 124 454 150 q 434 176 429 176 l 390 147 q 350 122 317 122 q 284 122 259 147 q 235 173 235 211 q 235 301 295 376 q 332 421 373 437 q 389 443 417 443 q 446 443 470 447 q 495 451 521 451 q 548 451 555 447 q 571 438 571 402 q 571 393 554 327 q 537 262 537 235 q 537 209 544 199 q 551 189 568 189 l 585 195 q 641 222 662 309 q 669 339 669 361 q 669 461 608 518 q 548 575 446 575 q 395 575 340 553 q 285 531 240 484 q 146 386 146 243 q 146 191 165 144 q 202 48 301 12 q 346 -4 393 -4 q 440 -4 465 2 q 489 9 524 21 l 563 34 q 579 34 579 23 z"},".":{"x_min":0,"x_max":277,"ha":277,"o":"m 193 71 q 193 39 172 15 q 151 -9 120 -9 l 102 -9 q 97 -8 95 -8 q 72 -8 57 10 q 41 28 41 52 l 41 67 q 42 72 42 75 q 42 103 65 123 q 89 143 116 143 l 126 143 q 153 143 172 127 q 191 110 191 88 l 193 73 z"},"p":{"x_min":0,"x_max":541,"ha":541,"o":"m 392 292 l 392 301 q 392 337 379 359 q 365 380 339 380 l 335 380 q 260 380 208 214 q 193 166 193 131 l 192 123 l 191 106 q 191 85 206 71 q 220 56 246 56 l 250 56 q 300 56 346 133 q 392 210 392 292 z m -40 -184 q -40 -179 -27 -160 q 6 -113 30 -31 q 41 5 56 77 q 71 148 88 220 q 104 292 104 320 q 104 348 85 365 q 65 383 65 388 q 65 405 90 418 q 145 445 179 445 q 214 445 222 430 q 230 415 247 415 q 251 415 268 425 q 284 435 309 447 q 334 458 369 458 l 380 458 q 437 458 478 417 q 520 375 520 311 q 520 247 494 186 q 468 125 425 82 q 381 39 333 20 q 284 1 208 1 q 177 1 158 -25 q 140 -52 140 -108 q 140 -122 156 -144 q 171 -167 171 -185 q 171 -203 143 -215 q 115 -226 70 -226 l 31 -226 q -9 -226 -24 -215 q -40 -204 -40 -191 z"},"X":{"x_min":0,"x_max":663,"ha":663,"o":"m 283 336 q 283 347 241 443 q 199 539 184 564 q 169 589 138 605 q 107 621 107 637 q 107 653 118 658 q 129 664 266 664 l 353 665 q 388 665 388 646 l 381 633 l 368 625 l 356 615 q 344 603 344 569 q 344 536 382 456 q 393 434 401 434 q 423 434 498 534 q 527 573 527 597 q 527 603 515 618 q 502 634 502 642 q 502 661 533 664 l 553 665 l 618 664 q 722 664 722 648 q 722 631 668 595 q 614 559 570 512 q 441 375 441 353 q 441 331 464 277 q 528 128 544 100 q 561 72 583 61 q 623 41 623 34 q 623 7 593 2 q 582 0 463 0 l 419 0 l 398 0 q 341 0 341 17 q 341 21 363 44 q 385 67 385 112 q 385 156 336 237 l 326 250 q 303 250 226 158 q 181 104 181 85 q 181 65 186 54 l 193 42 l 202 31 l 208 21 q 208 0 173 0 l 132 0 l 110 0 l 22 0 q -30 0 -30 9 q -30 37 10 59 q 62 87 89 112 q 115 137 227 254 q 283 312 283 336 z"},"*":{"x_min":0,"x_max":459,"ha":459,"o":"m 309 375 q 302 368 285 368 q 268 368 246 387 q 224 406 217 406 l 211 405 q 193 399 169 399 q 145 399 145 417 q 145 450 172 469 q 199 487 199 503 q 199 511 168 532 q 137 553 137 582 l 137 589 q 137 614 171 614 q 182 614 218 585 q 255 555 265 555 q 271 555 271 606 q 271 656 282 670 q 293 685 315 685 q 349 685 349 648 q 349 642 339 605 q 329 569 329 569 q 329 561 338 561 q 348 561 375 572 q 401 583 411 583 q 421 583 435 573 q 449 562 449 559 l 449 555 q 449 523 412 504 q 376 485 376 477 q 377 470 377 468 q 377 465 383 451 q 389 437 389 426 q 389 392 374 392 q 347 397 338 397 q 329 397 309 375 z"},"Y":{"x_min":0,"x_max":616,"ha":616,"o":"m 241 242 q 241 334 169 526 q 152 569 126 587 q 86 614 86 628 l 86 638 l 94 644 q 126 663 295 663 l 310 663 q 343 663 343 643 q 343 639 325 622 q 308 604 308 582 q 308 527 358 379 q 365 359 371 359 q 389 359 473 496 q 519 570 519 599 q 519 606 508 621 q 498 636 498 639 q 498 663 547 663 l 562 663 q 698 663 698 641 q 698 624 658 599 q 618 575 586 538 q 500 439 426 320 q 396 272 380 215 q 364 157 364 122 q 364 87 371 74 q 379 61 401 48 q 423 36 423 29 q 423 4 388 0 q 383 0 237 0 l 154 -1 q 115 -1 115 20 q 115 32 149 49 q 182 66 195 88 q 208 110 225 167 q 241 224 241 242 z"},"c":{"x_min":0,"x_max":441,"ha":441,"o":"m 315 451 q 436 451 436 388 q 436 361 419 340 q 402 318 384 318 q 366 318 340 350 q 314 382 284 382 q 244 382 208 328 q 164 259 164 167 q 164 122 185 96 q 206 70 239 70 q 272 70 319 91 q 366 112 373 112 q 394 112 394 92 q 394 68 323 29 q 253 -10 195 -10 l 184 -10 q 118 -10 74 32 q 30 74 30 139 l 30 159 q 30 210 56 267 q 106 380 209 428 q 257 451 306 451 z"},"!":{"x_min":0,"x_max":324,"ha":324,"o":"m 136 136 q 167 136 182 118 q 197 100 197 72 l 197 69 q 197 38 178 15 q 158 -8 136 -8 l 119 -10 l 114 -10 q 86 -10 69 5 q 52 20 52 40 l 50 52 l 50 59 q 50 92 72 113 q 93 135 114 135 l 126 136 z m 125 216 l 125 231 q 125 249 148 432 q 171 616 176 631 q 181 647 201 660 q 221 673 260 673 l 267 673 q 320 673 320 641 q 320 570 197 248 q 179 200 148 200 l 143 200 q 125 200 125 216 z"},"/":{"x_min":0,"x_max":399,"ha":399,"o":"m 410 690 q 456 690 456 670 q 456 624 99 5 q 60 -64 29 -64 q -17 -64 -17 -44 q -17 -35 -1 -4 q 121 239 358 651 q 380 690 410 690 z"},"[":{"x_min":0,"x_max":391,"ha":391,"o":"m 447 681 q 447 659 399 648 q 350 638 337 628 q 324 619 312 590 q 301 562 235 269 q 169 -23 169 -56 q 169 -89 181 -97 q 192 -106 230 -116 q 269 -126 269 -145 q 269 -167 240 -167 l 191 -167 l 179 -167 l 154 -167 q 64 -167 56 -165 q 41 -162 41 -141 q 41 -121 125 259 q 208 638 208 640 q 222 683 239 691 q 256 699 297 699 l 309 699 l 383 699 l 420 699 q 447 699 447 681 z"},"6":{"x_min":0,"x_max":540,"ha":540,"o":"m 370 262 q 370 297 351 323 q 332 348 300 348 l 288 348 q 239 348 207 294 q 174 239 174 158 l 174 153 q 174 149 174 146 l 175 130 q 175 93 196 70 q 217 47 242 47 l 254 47 q 295 47 328 97 q 369 161 369 228 l 370 237 z m 312 524 q 280 496 265 464 q 250 432 250 416 q 250 399 269 399 q 274 399 294 404 q 314 409 339 409 q 410 409 454 365 q 498 321 498 238 q 498 188 477 143 q 433 47 342 7 q 295 -13 246 -13 l 233 -13 q 148 -13 97 45 q 46 102 46 188 l 46 213 q 46 292 80 374 q 114 457 171 518 q 227 580 304 615 q 381 650 449 650 q 473 650 493 635 q 513 620 513 600 q 513 592 499 584 q 472 568 416 568 q 360 568 312 524 z"},"r":{"x_min":0,"x_max":419,"ha":419,"o":"m 96 -1 l 87 -1 q 69 -1 58 10 q 47 21 47 36 l 47 44 q 47 79 79 173 q 111 266 111 312 q 111 335 89 343 q 67 351 67 385 q 67 396 89 409 q 144 444 174 444 l 189 444 q 236 444 236 373 q 236 332 244 332 q 248 332 263 351 q 279 370 291 383 q 303 395 330 414 q 357 433 378 433 q 398 433 412 419 q 425 405 425 398 l 425 392 q 425 368 405 344 q 384 321 361 321 l 314 326 q 299 326 279 304 q 258 283 243 248 q 228 213 210 126 q 191 39 179 22 q 162 -1 96 -1 z"},"2":{"x_min":0,"x_max":537,"ha":537,"o":"m 371 470 q 371 509 348 532 q 324 555 288 555 q 252 555 210 509 q 168 463 132 463 q 118 463 118 488 q 118 512 134 546 q 150 581 176 601 q 234 645 319 645 q 454 645 496 551 q 509 521 509 494 l 509 479 q 509 414 451 345 q 423 312 307 222 q 191 131 191 120 q 191 108 260 108 l 275 109 q 290 109 325 109 q 360 109 396 124 q 431 138 441 138 q 458 138 458 122 q 458 105 447 71 q 436 37 419 22 q 393 0 313 0 l 250 0 l 234 0 l 204 1 q 125 5 73 5 q 21 5 21 25 q 21 52 60 95 q 100 137 188 215 q 276 292 314 342 q 371 415 371 470 z"},"{":{"x_min":0,"x_max":388,"ha":388,"o":"m 84 -46 q 84 -17 110 70 q 135 156 135 184 q 135 212 113 231 q 108 235 90 246 q 71 257 71 264 l 71 273 q 71 274 130 306 q 158 322 170 351 q 182 380 188 453 q 195 526 204 563 q 225 647 294 682 q 344 706 386 706 q 428 706 428 699 l 428 691 q 428 680 389 657 q 350 634 330 601 q 311 568 297 476 q 284 385 271 354 q 257 322 240 308 q 222 293 202 283 q 183 273 183 269 q 183 265 199 252 q 215 239 225 223 q 235 206 235 172 q 235 138 216 70 q 198 1 198 -40 q 198 -81 221 -110 q 257 -156 257 -159 q 257 -173 238 -173 l 226 -173 q 84 -173 84 -46 z"},"9":{"x_min":0,"x_max":540,"ha":540,"o":"m 396 499 q 396 533 375 555 q 354 578 325 578 q 282 578 250 532 q 206 468 206 401 l 206 396 l 205 393 l 205 380 l 205 367 q 205 327 224 302 q 243 276 273 276 l 285 276 q 332 276 365 327 q 397 378 397 459 l 397 480 q 396 492 396 499 z m 127 -28 l 116 -28 q 91 -28 73 -11 q 55 6 55 19 q 55 52 164 59 q 243 63 292 134 q 319 175 319 205 q 319 223 292 223 q 291 223 272 220 q 253 218 228 218 q 203 218 170 232 q 80 272 80 388 q 80 434 101 483 q 122 532 159 567 q 235 639 330 639 q 425 639 475 582 q 525 525 525 426 l 525 413 q 525 331 490 246 q 421 80 272 9 q 195 -28 127 -28 z"}," ":{"x_min":0,"x_max":271,"ha":271,"o":""},"I":{"x_min":0,"x_max":389,"ha":389,"o":"m 4 15 q 4 35 37 54 q 70 73 80 84 q 90 95 101 123 q 111 152 135 260 q 159 369 176 439 q 193 510 193 545 q 193 581 187 590 q 181 600 157 614 q 134 629 134 638 q 134 665 174 665 l 229 665 l 241 665 l 392 665 l 413 665 q 436 665 436 648 q 436 635 384 601 q 357 583 345 548 q 332 513 291 327 q 250 141 250 109 q 250 78 271 61 q 309 30 309 23 q 309 -1 267 -1 l 256 0 l 178 0 l 119 0 l 40 -1 q 4 -1 4 15 z"},"H":{"x_min":0,"x_max":756,"ha":756,"o":"m 90 123 l 96 146 q 107 194 127 287 l 157 426 q 183 542 183 568 q 183 593 159 606 q 125 625 125 641 q 125 657 148 660 q 170 664 297 664 l 393 664 q 410 661 410 644 q 410 640 379 616 q 349 592 335 559 q 321 526 308 470 q 294 414 294 407 q 294 385 308 381 q 321 377 418 377 q 515 377 529 388 q 542 399 549 427 q 571 516 571 552 q 571 588 551 616 q 530 643 530 646 q 530 665 579 665 l 626 664 l 700 664 q 805 664 805 654 q 805 626 775 610 q 731 586 720 555 q 716 542 669 330 q 622 118 622 98 q 622 77 638 65 q 679 34 679 31 q 679 11 665 6 q 652 0 546 0 l 472 0 l 448 0 l 426 0 q 395 0 395 11 q 395 26 424 47 q 453 67 470 106 q 518 210 518 285 q 518 306 503 311 l 481 312 q 472 313 393 313 q 314 313 295 307 q 276 301 268 286 q 237 221 237 107 q 237 73 249 56 l 259 43 q 276 26 276 22 q 276 8 256 2 q 250 0 125 0 q 0 0 0 21 q 0 42 39 61 q 77 79 90 123 z"},"4":{"x_min":0,"x_max":543,"ha":543,"o":"m 197 233 l 254 233 q 286 233 292 249 q 293 253 294 259 l 298 280 q 304 303 306 313 l 318 371 q 323 389 325 402 l 328 414 q 345 480 345 490 q 345 499 343 499 q 335 499 225 369 q 115 239 115 238 q 115 233 197 233 z m 145 153 q 23 153 23 194 q 23 226 61 273 q 160 395 348 588 q 397 639 455 639 q 493 639 493 614 l 493 604 q 493 598 464 461 q 436 324 436 297 q 436 270 461 256 q 486 243 486 207 q 486 199 441 158 q 415 134 415 88 l 415 84 l 419 73 q 422 63 422 51 q 422 11 377 -5 q 332 -21 231 -21 q 183 -21 183 16 q 183 39 213 60 q 243 81 243 100 q 243 135 230 144 q 217 153 145 153 z"},"~":{"x_min":0,"x_max":555,"ha":555,"o":"m 186 346 l 203 346 q 231 346 305 312 q 378 279 399 279 q 420 279 452 312 q 483 346 488 346 q 520 346 520 314 l 520 308 q 520 269 468 223 q 435 194 393 194 q 351 194 281 227 q 211 261 186 261 q 161 261 137 235 q 98 193 93 193 q 61 193 61 232 q 61 271 104 308 q 147 346 186 346 z"},"D":{"x_min":0,"x_max":722,"ha":722,"o":"m 560 392 l 560 414 q 560 500 517 553 q 475 605 401 605 l 393 605 q 362 605 348 596 q 334 586 321 547 q 308 507 266 300 q 225 92 225 86 q 225 80 236 69 q 247 59 284 59 l 292 59 l 300 60 q 351 60 398 83 q 491 129 534 255 q 560 329 560 392 z m 177 550 q 177 585 156 601 q 124 626 124 638 q 124 658 151 661 q 178 665 295 665 l 347 665 l 386 665 q 466 665 522 651 q 578 638 620 604 q 663 571 686 519 q 709 466 709 409 l 709 384 q 709 307 674 230 q 639 153 580 100 q 521 48 449 23 q 378 -1 279 -1 l 229 -1 l 216 0 l 128 0 l 78 -1 l 41 -1 q -2 -1 -2 15 q -2 39 33 56 q 69 73 84 115 q 99 158 138 348 q 177 539 177 550 z"},"^":{"x_min":0,"x_max":546,"ha":546,"o":"m 511 313 q 511 296 463 296 q 440 296 416 332 q 392 368 350 458 q 308 548 299 548 q 298 548 248 458 q 198 367 172 332 q 146 296 112 296 q 78 296 78 310 q 78 314 151 448 q 225 582 260 637 q 274 660 311 660 l 319 660 q 338 660 359 624 q 380 587 414 514 q 449 440 480 378 q 511 316 511 313 z"},"0":{"x_min":0,"x_max":542,"ha":542,"o":"m 227 46 l 238 46 q 293 46 342 169 q 364 226 384 322 q 404 418 404 466 l 404 492 q 404 535 388 560 q 372 585 345 585 l 339 585 q 277 585 227 457 q 199 388 183 292 q 166 196 166 170 l 166 138 q 166 97 183 72 q 200 46 227 46 z m 533 446 l 533 417 q 533 347 507 260 q 454 83 337 17 q 282 -14 226 -14 l 216 -14 q 134 -14 87 44 q 40 102 40 185 l 40 214 q 40 284 64 369 q 115 543 238 615 q 290 645 348 645 l 366 645 q 439 645 486 587 q 533 530 533 446 z"},"F":{"x_min":0,"x_max":578,"ha":578,"o":"m 619 612 q 619 501 588 501 q 570 501 555 524 q 526 565 513 573 q 472 598 408 598 q 375 598 353 560 q 299 465 299 411 q 299 395 310 386 q 321 376 356 376 q 391 376 429 407 q 467 437 481 437 q 496 437 496 407 q 496 339 466 261 q 454 229 432 229 q 410 229 398 255 q 387 280 376 289 q 365 297 327 297 q 288 297 272 262 q 249 210 249 150 q 249 91 257 74 q 265 57 279 42 q 292 26 292 19 q 292 0 236 0 l 202 0 l 184 0 l 166 0 q 77 0 59 2 q 11 9 11 25 q 11 42 52 62 q 80 77 91 106 q 92 110 138 314 q 184 518 184 554 q 184 590 171 603 l 161 611 l 150 618 q 137 627 137 634 q 137 660 170 663 q 184 665 383 665 l 558 666 q 598 666 604 662 q 619 655 619 612 z"},"`":{"x_min":0,"x_max":396,"ha":396,"o":"m 336 536 l 336 525 q 336 507 316 507 l 308 507 q 300 507 223 567 q 146 627 146 642 l 146 651 q 146 661 161 674 q 176 687 193 687 l 201 687 q 229 687 261 651 q 336 567 336 536 z"},"k":{"x_min":0,"x_max":536,"ha":536,"o":"m 27 41 q 27 77 49 136 q 71 196 93 299 q 153 577 153 590 q 153 604 129 622 q 104 641 104 650 q 104 671 129 680 q 176 696 266 696 q 294 696 294 654 q 294 646 261 500 q 228 354 228 312 q 228 297 237 297 q 252 297 292 340 q 332 383 368 407 q 404 431 450 431 q 495 431 495 400 q 495 389 416 346 q 336 303 336 271 q 336 270 355 234 q 375 199 391 156 q 407 113 417 101 q 436 75 472 75 q 490 75 490 65 q 490 47 464 33 q 413 6 362 6 q 336 6 323 22 q 309 39 277 118 q 246 197 226 197 q 203 197 181 122 q 159 47 148 35 q 121 1 68 1 q 27 1 27 41 z"},"u":{"x_min":0,"x_max":564,"ha":564,"o":"m 107 324 q 107 357 87 366 q 58 378 58 392 q 58 398 70 405 q 139 445 189 445 l 200 445 q 218 445 230 429 q 242 412 242 382 q 242 352 217 257 q 192 162 192 118 q 192 83 225 83 q 237 83 258 100 q 347 167 384 355 q 395 406 401 417 q 416 443 460 443 q 487 443 496 432 q 505 421 505 373 q 505 356 484 270 q 463 184 463 149 q 463 114 491 114 q 514 114 514 91 q 514 52 480 27 q 446 1 402 1 q 358 1 343 33 q 338 43 338 76 q 338 108 333 108 q 329 108 286 72 q 244 35 213 18 q 182 0 144 0 q 107 0 83 25 q 59 49 59 96 q 59 122 83 221 q 107 321 107 324 z"},"]":{"x_min":0,"x_max":391,"ha":391,"o":"m -35 -154 q -35 -134 -12 -124 q -4 -120 28 -113 q 61 -107 75 -98 q 90 -90 100 -62 q 111 -35 177 259 q 243 552 243 603 q 243 622 232 630 q 221 638 183 649 q 145 660 145 674 q 145 699 180 699 l 229 699 l 242 699 l 267 699 q 348 699 354 698 q 374 694 374 675 l 374 665 q 374 657 291 281 q 208 -96 202 -114 q 189 -154 167 -162 q 153 -167 47 -167 l 10 -168 l -2 -168 q -35 -168 -35 -154 z"},"U":{"x_min":0,"x_max":706,"ha":706,"o":"m 236 185 q 236 61 355 61 q 449 61 500 160 q 524 208 553 348 q 583 487 583 538 q 583 589 566 618 l 561 628 q 550 644 550 645 q 550 665 595 665 l 672 663 q 765 663 765 647 q 765 618 732 598 q 700 579 688 550 q 675 521 637 345 q 599 169 566 113 q 532 57 471 23 q 410 -10 338 -10 q 158 -10 112 95 q 98 128 98 167 l 98 186 q 98 223 134 390 q 170 557 170 573 q 170 590 141 604 q 111 617 111 629 q 111 651 141 659 q 158 663 229 663 l 250 664 l 270 665 l 332 665 l 351 665 q 391 665 391 642 q 391 638 376 627 q 361 616 353 606 q 329 582 309 528 q 290 475 263 343 q 236 211 236 185 z"},"o":{"x_min":0,"x_max":508,"ha":508,"o":"m 159 155 l 159 137 q 159 98 174 73 q 189 49 218 49 l 226 49 q 244 49 267 65 q 290 81 310 119 q 357 208 357 293 l 357 316 q 357 351 344 375 q 330 399 300 399 l 295 399 q 247 399 203 322 q 159 244 159 155 z m 305 458 l 329 458 q 394 458 439 412 q 484 367 484 287 l 484 280 q 484 231 462 175 q 440 119 399 76 q 318 -9 213 -9 q 212 -9 212 -9 l 196 -9 q 125 -9 79 35 q 32 80 32 155 l 32 162 l 32 169 q 32 218 54 272 q 100 388 206 435 q 256 458 305 458 z"},"N":{"x_min":0,"x_max":722,"ha":722,"o":"m 539 214 q 547 214 554 234 q 562 254 586 376 q 611 498 611 537 q 611 576 603 591 q 594 607 580 622 q 565 637 565 643 q 565 665 600 665 l 622 665 l 644 665 l 667 665 q 782 665 782 651 q 782 630 746 600 q 710 571 699 537 q 687 504 657 369 q 626 233 609 149 q 591 64 587 49 q 572 0 542 0 q 504 0 467 56 q 460 68 358 273 q 257 479 250 479 l 243 467 l 238 448 q 235 437 223 380 l 208 313 q 181 188 181 140 q 181 92 202 45 l 208 34 l 213 23 q 213 9 203 5 q 193 0 109 0 q 25 0 13 5 q 1 10 1 23 q 1 37 21 51 l 53 72 q 76 95 90 135 q 104 175 142 354 q 180 532 180 549 q 180 565 152 597 q 124 630 124 641 q 124 652 139 658 q 154 665 215 665 q 276 665 296 654 q 316 644 343 605 q 369 566 452 390 q 535 214 539 214 z"},"+":{"x_min":0,"x_max":562,"ha":562,"o":"m 301 498 l 320 498 q 337 498 339 492 q 341 486 341 439 l 340 403 l 340 394 l 339 375 l 337 318 q 337 306 424 306 q 510 306 516 303 q 522 300 522 282 l 522 273 q 522 231 511 228 q 500 224 422 224 q 344 224 338 220 q 331 217 331 184 q 330 152 330 102 q 330 52 322 36 q 317 26 283 26 q 249 26 246 35 q 245 36 245 126 q 245 217 240 220 q 236 224 159 224 q 82 224 72 227 q 62 230 62 260 q 62 289 66 296 q 70 304 96 304 l 113 305 l 186 305 q 246 305 250 310 q 253 314 253 344 q 254 373 254 423 q 254 474 260 486 q 267 498 301 498 z"},"G":{"x_min":0,"x_max":709,"ha":709,"o":"m 657 657 q 671 657 679 644 q 688 631 688 616 q 688 548 669 503 q 660 478 644 478 q 633 478 601 523 q 568 568 537 587 q 505 605 458 605 q 411 605 366 580 q 320 555 286 505 q 214 401 214 258 q 214 168 256 114 q 297 60 364 60 q 413 60 435 85 q 458 111 458 177 q 458 244 438 271 q 427 285 427 294 q 427 310 479 310 l 499 310 q 518 309 538 309 q 691 309 691 290 l 691 278 q 691 264 663 245 q 634 226 627 206 l 622 187 q 618 171 612 144 q 592 46 572 30 q 561 20 528 13 q 414 -10 344 -10 q 205 -10 127 71 q 58 142 58 268 q 58 345 90 421 q 121 496 177 553 q 233 610 308 643 q 380 675 445 675 l 446 675 q 512 675 557 663 q 603 651 611 651 l 626 652 q 655 657 657 657 z"},"q":{"x_min":0,"x_max":534,"ha":534,"o":"m 199 76 l 206 76 q 225 76 253 94 q 281 112 308 152 q 336 192 352 243 q 368 295 368 335 l 368 347 q 368 370 354 384 q 339 397 317 397 l 305 397 q 287 397 261 378 q 234 359 208 314 q 159 230 159 158 l 159 139 q 159 110 171 93 q 183 76 199 76 z m 297 453 q 340 453 376 435 q 390 428 398 428 q 405 428 421 438 l 430 442 q 450 452 486 452 q 522 452 522 429 l 522 420 q 522 409 497 324 q 471 240 431 65 q 392 -110 392 -128 q 392 -147 412 -163 q 433 -178 433 -190 q 433 -212 403 -220 q 387 -224 331 -224 l 280 -224 q 240 -224 224 -217 q 207 -209 207 -192 q 207 -176 234 -140 q 261 -104 273 -68 q 303 13 303 59 q 303 64 297 64 q 292 64 271 52 q 201 7 146 6 q 98 6 62 42 q 29 75 29 131 l 29 144 q 29 194 52 251 q 75 309 111 352 q 198 453 297 453 z"},"d":{"x_min":0,"x_max":554,"ha":554,"o":"m 155 149 l 155 138 q 155 105 167 90 q 178 75 192 75 l 202 75 q 218 75 246 94 q 275 112 301 149 q 359 235 359 313 l 360 318 l 360 322 l 361 333 l 361 342 q 361 363 347 377 q 333 391 311 391 l 299 391 q 279 391 254 374 q 229 356 206 316 q 155 225 155 149 z m 389 459 q 420 513 420 572 q 420 599 413 609 q 406 619 385 629 q 365 640 365 651 q 365 662 377 669 q 425 699 526 699 q 542 699 553 686 q 564 674 564 647 q 564 641 507 403 q 449 165 449 121 q 449 100 485 100 q 506 100 506 66 q 506 46 467 22 q 428 -2 388 -2 q 349 -2 334 17 q 326 28 319 58 q 312 87 311 87 q 301 87 271 61 q 167 0 141 0 q 138 0 137 0 q 85 0 55 36 q 24 72 24 135 q 24 199 57 269 q 89 339 136 384 q 208 453 292 453 q 306 453 321 451 q 359 445 370 445 q 381 445 389 459 z"},"1":{"x_min":0,"x_max":529,"ha":529,"o":"m 206 590 q 357 643 409 643 q 432 643 432 623 q 432 610 409 517 q 386 424 354 278 q 323 132 323 121 q 323 89 351 68 q 402 31 402 23 q 402 4 374 1 q 369 0 209 0 l 165 0 l 109 0 l 88 0 q 62 0 62 14 l 62 20 q 62 38 114 59 q 167 80 181 115 q 188 133 225 298 q 262 462 262 484 q 262 506 250 515 q 238 524 201 532 q 165 539 165 558 q 165 576 206 590 z"},"5":{"x_min":0,"x_max":536,"ha":536,"o":"m 496 640 q 531 640 531 620 q 531 600 519 572 q 506 543 486 532 q 465 522 354 522 q 354 522 323 523 l 279 524 q 251 524 236 504 q 207 465 207 423 q 207 402 222 402 l 235 403 q 249 404 263 404 q 366 404 428 346 q 477 300 477 226 q 477 116 385 41 q 345 7 291 -11 q 236 -30 178 -30 l 161 -30 q 96 -30 60 -8 q 24 15 24 61 q 24 83 37 96 q 50 110 72 110 q 94 110 135 76 q 175 42 205 42 q 263 42 301 87 q 340 131 340 193 q 340 254 299 283 q 258 312 158 312 q 113 312 113 341 q 113 350 150 469 q 187 589 195 604 q 213 635 266 635 l 391 630 q 410 630 449 635 q 489 640 496 640 z"}}}
